<svg xmlns="http://www.w3.org/2000/svg" width="600" height="400" viewBox="0 0 600 400">
  <defs>
    <linearGradient id="gradient1" x1="0%" y1="0%" x2="100%" y2="100%">
      <stop offset="0%" stop-color="#0ea5e9" />
      <stop offset="100%" stop-color="#0369a1" />
    </linearGradient>
    <linearGradient id="gradient2" x1="0%" y1="0%" x2="100%" y2="100%">
      <stop offset="0%" stop-color="#ffd700" />
      <stop offset="100%" stop-color="#ff8c00" />
    </linearGradient>
    <linearGradient id="gradient3" x1="0%" y1="0%" x2="100%" y2="100%">
      <stop offset="0%" stop-color="#f0f9ff" />
      <stop offset="100%" stop-color="#e0f2fe" />
    </linearGradient>
  </defs>
  
  <!-- Background -->
  <rect x="0" y="0" width="600" height="400" rx="20" fill="white" />
  
  <!-- Abstract Background Elements -->
  <circle cx="500" cy="100" r="80" fill="#e0f2fe" opacity="0.6" />
  <circle cx="100" cy="300" r="60" fill="#ffd700" opacity="0.2" />
  
  <!-- Marketing Strategy Illustration -->
  
  <!-- Central Brain/Network Hub -->
  <circle cx="300" cy="200" r="70" fill="url(#gradient3)" stroke="#0ea5e9" stroke-width="2" />
  
  <!-- Connection Lines -->
  <line x1="300" y1="130" x2="300" y2="80" stroke="#0ea5e9" stroke-width="2" />
  <line x1="300" y1="270" x2="300" y2="320" stroke="#0ea5e9" stroke-width="2" />
  <line x1="230" y1="200" x2="180" y2="200" stroke="#0ea5e9" stroke-width="2" />
  <line x1="370" y1="200" x2="420" y2="200" stroke="#0ea5e9" stroke-width="2" />
  
  <line x1="250" y1="150" x2="200" y2="120" stroke="#0ea5e9" stroke-width="2" />
  <line x1="350" y1="150" x2="400" y2="120" stroke="#0ea5e9" stroke-width="2" />
  <line x1="250" y1="250" x2="200" y2="280" stroke="#0ea5e9" stroke-width="2" />
  <line x1="350" y1="250" x2="400" y2="280" stroke="#0ea5e9" stroke-width="2" />
  
  <!-- Connection Nodes -->
  <circle cx="300" cy="80" r="25" fill="white" stroke="#0ea5e9" stroke-width="2" />
  <circle cx="300" cy="320" r="25" fill="white" stroke="#0ea5e9" stroke-width="2" />
  <circle cx="180" cy="200" r="25" fill="white" stroke="#0ea5e9" stroke-width="2" />
  <circle cx="420" cy="200" r="25" fill="white" stroke="#0ea5e9" stroke-width="2" />
  
  <circle cx="200" cy="120" r="20" fill="white" stroke="#0ea5e9" stroke-width="2" />
  <circle cx="400" cy="120" r="20" fill="white" stroke="#0ea5e9" stroke-width="2" />
  <circle cx="200" cy="280" r="20" fill="white" stroke="#0ea5e9" stroke-width="2" />
  <circle cx="400" cy="280" r="20" fill="white" stroke="#0ea5e9" stroke-width="2" />
  
  <!-- Node Icons (simplified) -->
  <!-- Data Node -->
  <rect x="285" y="65" width="30" height="30" rx="2" fill="url(#gradient1)" />
  <line x1="295" y1="75" x2="305" y2="75" stroke="white" stroke-width="2" />
  <line x1="295" y1="80" x2="305" y2="80" stroke="white" stroke-width="2" />
  <line x1="295" y1="85" x2="305" y2="85" stroke="white" stroke-width="2" />
  
  <!-- Social Media Node -->
  <rect x="165" y="185" width="30" height="30" rx="15" fill="url(#gradient1)" />
  <text x="180" y="200" font-family="Arial" font-size="14" fill="white" text-anchor="middle">@</text>
  
  <!-- SEO Node -->
  <rect x="405" y="185" width="30" height="30" rx="2" fill="url(#gradient1)" />
  <text x="420" y="200" font-family="Arial" font-size="14" fill="white" text-anchor="middle">S</text>
  
  <!-- Conversion Node -->
  <rect x="285" y="305" width="30" height="30" rx="2" fill="url(#gradient1)" />
  <text x="300" y="325" font-family="Arial" font-size="18" fill="white" text-anchor="middle">$</text>
  
  <!-- Brain/AI Icon in Center -->
  <circle cx="300" cy="200" r="40" fill="url(#gradient1)" />
  <path d="M280,190 C280,180 290,175 300,175 C310,175 320,180 320,190 C320,200 310,210 300,210 C290,210 280,200 280,190 Z" fill="none" stroke="white" stroke-width="2" />
  <path d="M290,190 L290,220 M310,190 L310,220 M290,220 L310,220" fill="none" stroke="white" stroke-width="2" />
  <circle cx="295" cy="185" r="3" fill="white" />
  <circle cx="305" cy="185" r="3" fill="white" />
  
  <!-- Small Decorative Elements -->
  <circle cx="50" cy="50" r="15" fill="url(#gradient2)" opacity="0.7" />
  <circle cx="550" cy="350" r="15" fill="url(#gradient2)" opacity="0.7" />
  
  <!-- Abstract Lines -->
  <line x1="50" y1="350" x2="100" y2="300" stroke="#e0e0e0" stroke-width="2" />
  <line x1="500" y1="50" x2="550" y2="100" stroke="#e0e0e0" stroke-width="2" />
</svg>