<svg xmlns="http://www.w3.org/2000/svg" width="600" height="400" viewBox="0 0 600 400">
  <defs>
    <linearGradient id="gradient1" x1="0%" y1="0%" x2="100%" y2="100%">
      <stop offset="0%" stop-color="#0ea5e9" />
      <stop offset="100%" stop-color="#0369a1" />
    </linearGradient>
    <linearGradient id="gradient2" x1="0%" y1="0%" x2="100%" y2="100%">
      <stop offset="0%" stop-color="#ffd700" />
      <stop offset="100%" stop-color="#ff8c00" />
    </linearGradient>
    <linearGradient id="gradient3" x1="0%" y1="0%" x2="100%" y2="100%">
      <stop offset="0%" stop-color="#f0f9ff" />
      <stop offset="100%" stop-color="#e0f2fe" />
    </linearGradient>
  </defs>
  
  <!-- Background Elements -->
  <rect x="0" y="0" width="600" height="400" fill="#ffffff" />
  
  <!-- Abstract Shapes -->
  <circle cx="500" cy="100" r="80" fill="#e0f2fe" opacity="0.6" />
  <circle cx="100" cy="300" r="60" fill="#ffd700" opacity="0.2" />
  
  <!-- Dashboard/Analytics Illustration -->
  <rect x="150" y="80" width="300" height="200" rx="10" fill="white" stroke="#e0e0e0" stroke-width="2" />
  
  <!-- Graph Lines -->
  <polyline points="180,220 220,180 260,200 300,150 340,170 380,120 420,140" fill="none" stroke="url(#gradient1)" stroke-width="3" />
  <polyline points="180,240 220,230 260,250 300,210 340,230 380,200 420,220" fill="none" stroke="url(#gradient2)" stroke-width="3" />
  
  <!-- Graph Dots -->
  <circle cx="180" cy="220" r="5" fill="url(#gradient1)" />
  <circle cx="220" cy="180" r="5" fill="url(#gradient1)" />
  <circle cx="260" cy="200" r="5" fill="url(#gradient1)" />
  <circle cx="300" cy="150" r="5" fill="url(#gradient1)" />
  <circle cx="340" cy="170" r="5" fill="url(#gradient1)" />
  <circle cx="380" cy="120" r="5" fill="url(#gradient1)" />
  <circle cx="420" cy="140" r="5" fill="url(#gradient1)" />
  
  <circle cx="180" cy="240" r="5" fill="url(#gradient2)" />
  <circle cx="220" cy="230" r="5" fill="url(#gradient2)" />
  <circle cx="260" cy="250" r="5" fill="url(#gradient2)" />
  <circle cx="300" cy="210" r="5" fill="url(#gradient2)" />
  <circle cx="340" cy="230" r="5" fill="url(#gradient2)" />
  <circle cx="380" cy="200" r="5" fill="url(#gradient2)" />
  <circle cx="420" cy="220" r="5" fill="url(#gradient2)" />
  
  <!-- Chart Header -->
  <rect x="180" y="100" width="120" height="10" rx="2" fill="#e0e0e0" />
  <rect x="180" y="120" width="80" height="10" rx="2" fill="#e0e0e0" />
  
  <!-- Side Panel -->
  <rect x="450" y="80" width="30" height="200" rx="4" fill="#f0f0f0" />
  <circle cx="465" cy="100" r="6" fill="url(#gradient1)" />
  <circle cx="465" cy="130" r="6" fill="#e0e0e0" />
  <circle cx="465" cy="160" r="6" fill="#e0e0e0" />
  <circle cx="465" cy="190" r="6" fill="#e0e0e0" />
  
  <!-- Social Media Icons -->
  <rect x="180" y="280" width="40" height="40" rx="20" fill="url(#gradient1)" opacity="0.8" />
  <rect x="240" y="280" width="40" height="40" rx="20" fill="url(#gradient2)" opacity="0.8" />
  <rect x="300" y="280" width="40" height="40" rx="20" fill="#e0e0e0" />
  <rect x="360" y="280" width="40" height="40" rx="20" fill="#e0e0e0" />
  
  <!-- Decorative Elements -->
  <circle cx="50" cy="50" r="30" fill="url(#gradient3)" />
  <circle cx="550" cy="350" r="25" fill="url(#gradient3)" />
  
  <!-- Abstract Lines -->
  <line x1="50" y1="350" x2="100" y2="300" stroke="#e0e0e0" stroke-width="2" />
  <line x1="500" y1="50" x2="550" y2="100" stroke="#e0e0e0" stroke-width="2" />
</svg>