<svg xmlns="http://www.w3.org/2000/svg" width="100" height="100" viewBox="0 0 100 100">
  <defs>
    <linearGradient id="gradient1" x1="0%" y1="0%" x2="100%" y2="100%">
      <stop offset="0%" stop-color="#0ea5e9" />
      <stop offset="100%" stop-color="#0369a1" />
    </linearGradient>
    <linearGradient id="skin" x1="0%" y1="0%" x2="100%" y2="100%">
      <stop offset="0%" stop-color="#8d5524" />
      <stop offset="100%" stop-color="#6d4018" />
    </linearGradient>
  </defs>
  
  <!-- Background Circle -->
  <circle cx="50" cy="50" r="50" fill="#f3f4f6" />
  
  <!-- Professional Portrait -->
  <circle cx="50" cy="45" r="30" fill="url(#skin)" />
  
  <!-- Hair -->
  <path d="M20,45 C20,25 35,15 50,15 C65,15 80,25 80,45 C80,55 75,60 75,60 L25,60 C25,60 20,55 20,45 Z" fill="#1a1a1a" />
  
  <!-- Eyes -->
  <ellipse cx="40" cy="40" rx="5" ry="4" fill="white" />
  <ellipse cx="60" cy="40" rx="5" ry="4" fill="white" />
  <circle cx="40" cy="40" r="2.5" fill="#1a1a1a" />
  <circle cx="60" cy="40" r="2.5" fill="#1a1a1a" />
  
  <!-- Eyebrows -->
  <path d="M35,33 C37,31 40,31 45,33" fill="none" stroke="#1a1a1a" stroke-width="1.5" />
  <path d="M55,33 C60,31 63,31 65,33" fill="none" stroke="#1a1a1a" stroke-width="1.5" />
  
  <!-- Nose -->
  <path d="M48,42 C50,47 52,47 54,42" fill="none" stroke="#6d4018" stroke-width="1" />
  
  <!-- Mouth -->
  <path d="M40,55 C45,60 55,60 60,55" fill="none" stroke="#6d4018" stroke-width="1" />
  
  <!-- Beard -->
  <path d="M30,55 C40,75 60,75 70,55" fill="none" stroke="#1a1a1a" stroke-width="2" />
  
  <!-- Shirt/Suit -->
  <path d="M25,75 L35,60 L65,60 L75,75 L75,100 L25,100 Z" fill="url(#gradient1)" />
  
  <!-- Tie -->
  <path d="M45,60 L45,100 L55,100 L55,60 Z" fill="white" />
</svg>