<svg xmlns="http://www.w3.org/2000/svg" width="100" height="100" viewBox="0 0 100 100">
  <defs>
    <linearGradient id="gradient1" x1="0%" y1="0%" x2="100%" y2="100%">
      <stop offset="0%" stop-color="#65a30d" />
      <stop offset="100%" stop-color="#4d7c0f" />
    </linearGradient>
    <linearGradient id="skin" x1="0%" y1="0%" x2="100%" y2="100%">
      <stop offset="0%" stop-color="#92400e" />
      <stop offset="100%" stop-color="#78350f" />
    </linearGradient>
  </defs>
  
  <!-- Background Circle -->
  <circle cx="50" cy="50" r="50" fill="#f3f4f6" />
  
  <!-- Professional Portrait -->
  <circle cx="50" cy="45" r="30" fill="url(#skin)" />
  
  <!-- Hair -->
  <path d="M20,35 C20,25 35,15 50,15 C65,15 80,25 80,35 C80,45 75,50 75,50 L25,50 C25,50 20,45 20,35 Z" fill="#1a1a1a" />
  
  <!-- Eyes -->
  <ellipse cx="40" cy="40" rx="5" ry="4" fill="white" />
  <ellipse cx="60" cy="40" rx="5" ry="4" fill="white" />
  <circle cx="40" cy="40" r="2.5" fill="#1a1a1a" />
  <circle cx="60" cy="40" r="2.5" fill="#1a1a1a" />
  
  <!-- Eyebrows -->
  <path d="M35,33 C37,31 40,31 45,33" fill="none" stroke="#1a1a1a" stroke-width="1.5" />
  <path d="M55,33 C60,31 63,31 65,33" fill="none" stroke="#1a1a1a" stroke-width="1.5" />
  
  <!-- Nose -->
  <path d="M48,42 C50,47 52,47 54,42" fill="none" stroke="#78350f" stroke-width="1" />
  
  <!-- Mouth -->
  <path d="M40,55 C45,60 55,60 60,55" fill="none" stroke="#78350f" stroke-width="1" />
  
  <!-- Beard -->
  <path d="M30,50 C40,70 60,70 70,50" fill="none" stroke="#1a1a1a" stroke-width="2" />
  
  <!-- Shirt/Casual Wear -->
  <path d="M25,75 L35,60 L65,60 L75,75 L75,100 L25,100 Z" fill="url(#gradient1)" />
  
  <!-- Shirt Pattern -->
  <line x1="35" y1="70" x2="65" y2="70" stroke="white" stroke-width="1" />
  <line x1="35" y1="80" x2="65" y2="80" stroke="white" stroke-width="1" />
  <line x1="35" y1="90" x2="65" y2="90" stroke="white" stroke-width="1" />
</svg>