<svg xmlns="http://www.w3.org/2000/svg" width="100" height="100" viewBox="0 0 100 100">
  <defs>
    <linearGradient id="gradient1" x1="0%" y1="0%" x2="100%" y2="100%">
      <stop offset="0%" stop-color="#4b5563" />
      <stop offset="100%" stop-color="#1f2937" />
    </linearGradient>
    <linearGradient id="skin" x1="0%" y1="0%" x2="100%" y2="100%">
      <stop offset="0%" stop-color="#92400e" />
      <stop offset="100%" stop-color="#78350f" />
    </linearGradient>
  </defs>
  
  <!-- Background Circle -->
  <circle cx="50" cy="50" r="50" fill="#f3f4f6" />
  
  <!-- Professional Portrait -->
  <circle cx="50" cy="45" r="30" fill="url(#skin)" />
  
  <!-- Hair -->
  <path d="M25,30 C25,20 35,15 50,15 C65,15 75,20 75,30 L75,45 C75,55 70,60 70,60 L30,60 C30,60 25,55 25,45 L25,30 Z" fill="#1a1a1a" />
  
  <!-- Eyes -->
  <ellipse cx="40" cy="40" rx="5" ry="4" fill="white" />
  <ellipse cx="60" cy="40" rx="5" ry="4" fill="white" />
  <circle cx="40" cy="40" r="2.5" fill="#1a1a1a" />
  <circle cx="60" cy="40" r="2.5" fill="#1a1a1a" />
  
  <!-- Eyebrows -->
  <path d="M35,33 C37,31 40,31 45,33" fill="none" stroke="#1a1a1a" stroke-width="1.5" />
  <path d="M55,33 C60,31 63,31 65,33" fill="none" stroke="#1a1a1a" stroke-width="1.5" />
  
  <!-- Nose -->
  <path d="M48,42 C50,47 52,47 54,42" fill="none" stroke="#78350f" stroke-width="1" />
  
  <!-- Mouth -->
  <path d="M40,55 C45,60 55,60 60,55" fill="none" stroke="#78350f" stroke-width="1" />
  
  <!-- Mustache -->
  <path d="M40,50 C45,53 55,53 60,50" fill="none" stroke="#1a1a1a" stroke-width="2" />
  
  <!-- Shirt/Suit -->
  <path d="M25,75 L35,60 L65,60 L75,75 L75,100 L25,100 Z" fill="url(#gradient1)" />
  
  <!-- Shirt -->
  <path d="M40,60 L40,100 L60,100 L60,60 Z" fill="white" />
  
  <!-- Glasses -->
  <rect x="35" y="35" width="10" height="10" rx="2" fill="none" stroke="#1a1a1a" stroke-width="1" />
  <rect x="55" y="35" width="10" height="10" rx="2" fill="none" stroke="#1a1a1a" stroke-width="1" />
  <line x1="45" y1="40" x2="55" y2="40" stroke="#1a1a1a" stroke-width="1" />
</svg>