<svg xmlns="http://www.w3.org/2000/svg" width="100" height="100" viewBox="0 0 100 100">
  <defs>
    <linearGradient id="gradient1" x1="0%" y1="0%" x2="100%" y2="100%">
      <stop offset="0%" stop-color="#0ea5e9" />
      <stop offset="100%" stop-color="#0369a1" />
    </linearGradient>
    <linearGradient id="skin" x1="0%" y1="0%" x2="100%" y2="100%">
      <stop offset="0%" stop-color="#a16207" />
      <stop offset="100%" stop-color="#854d0e" />
    </linearGradient>
  </defs>
  
  <!-- Background Circle -->
  <circle cx="50" cy="50" r="50" fill="#f3f4f6" />
  
  <!-- Professional Portrait -->
  <circle cx="50" cy="45" r="30" fill="url(#skin)" />
  
  <!-- Hair -->
  <path d="M20,35 C20,25 35,15 50,15 C65,15 80,25 80,35 C80,45 75,60 75,60 L25,60 C25,60 20,45 20,35 Z" fill="#1a1a1a" />
  
  <!-- Eyes -->
  <ellipse cx="40" cy="40" rx="5" ry="4" fill="white" />
  <ellipse cx="60" cy="40" rx="5" ry="4" fill="white" />
  <circle cx="40" cy="40" r="2.5" fill="#1a1a1a" />
  <circle cx="60" cy="40" r="2.5" fill="#1a1a1a" />
  
  <!-- Eyebrows -->
  <path d="M35,33 C37,31 40,31 45,33" fill="none" stroke="#1a1a1a" stroke-width="1.5" />
  <path d="M55,33 C60,31 63,31 65,33" fill="none" stroke="#1a1a1a" stroke-width="1.5" />
  
  <!-- Nose -->
  <path d="M48,42 C50,47 52,47 54,42" fill="none" stroke="#854d0e" stroke-width="1" />
  
  <!-- Mouth -->
  <path d="M40,55 C45,60 55,60 60,55" fill="none" stroke="#854d0e" stroke-width="1" />
  
  <!-- Bindi -->
  <circle cx="50" cy="30" r="2" fill="#dc2626" />
  
  <!-- Earrings -->
  <circle cx="20" cy="45" r="3" fill="gold" />
  <circle cx="80" cy="45" r="3" fill="gold" />
  
  <!-- Saree/Dress -->
  <path d="M25,75 L35,60 L65,60 L75,75 L75,100 L25,100 Z" fill="url(#gradient1)" />
  
  <!-- Necklace -->
  <path d="M40,65 C45,70 55,70 60,65" fill="none" stroke="gold" stroke-width="2" />
</svg>