<svg xmlns="http://www.w3.org/2000/svg" width="100" height="100" viewBox="0 0 100 100">
  <defs>
    <linearGradient id="gradient1" x1="0%" y1="0%" x2="100%" y2="100%">
      <stop offset="0%" stop-color="#7e22ce" />
      <stop offset="100%" stop-color="#581c87" />
    </linearGradient>
    <linearGradient id="skin" x1="0%" y1="0%" x2="100%" y2="100%">
      <stop offset="0%" stop-color="#a16207" />
      <stop offset="100%" stop-color="#854d0e" />
    </linearGradient>
  </defs>
  
  <!-- Background Circle -->
  <circle cx="50" cy="50" r="50" fill="#f3f4f6" />
  
  <!-- Professional Portrait -->
  <circle cx="50" cy="45" r="30" fill="url(#skin)" />
  
  <!-- Hair -->
  <path d="M20,35 C20,25 35,15 50,15 C65,15 80,25 80,35 C80,45 75,60 75,60 L25,60 C25,60 20,45 20,35 Z" fill="#1a1a1a" />
  <path d="M15,45 C15,35 20,30 25,30 L25,60 C25,60 15,55 15,45 Z" fill="#1a1a1a" />
  <path d="M85,45 C85,35 80,30 75,30 L75,60 C75,60 85,55 85,45 Z" fill="#1a1a1a" />
  
  <!-- Eyes -->
  <ellipse cx="40" cy="40" rx="5" ry="4" fill="white" />
  <ellipse cx="60" cy="40" rx="5" ry="4" fill="white" />
  <circle cx="40" cy="40" r="2.5" fill="#1a1a1a" />
  <circle cx="60" cy="40" r="2.5" fill="#1a1a1a" />
  
  <!-- Eyebrows -->
  <path d="M35,33 C37,31 40,31 45,33" fill="none" stroke="#1a1a1a" stroke-width="1.5" />
  <path d="M55,33 C60,31 63,31 65,33" fill="none" stroke="#1a1a1a" stroke-width="1.5" />
  
  <!-- Nose -->
  <path d="M48,42 C50,47 52,47 54,42" fill="none" stroke="#854d0e" stroke-width="1" />
  
  <!-- Mouth -->
  <path d="M40,55 C45,60 55,60 60,55" fill="none" stroke="#854d0e" stroke-width="1" />
  
  <!-- Earrings -->
  <circle cx="20" cy="45" r="3" fill="gold" />
  <circle cx="80" cy="45" r="3" fill="gold" />
  
  <!-- Dress/Top -->
  <path d="M25,75 L35,60 L65,60 L75,75 L75,100 L25,100 Z" fill="url(#gradient1)" />
  
  <!-- Necklace -->
  <path d="M40,65 C45,70 55,70 60,65" fill="none" stroke="gold" stroke-width="2" />
  
  <!-- Flower in Hair -->
  <circle cx="75" cy="30" r="5" fill="#ec4899" />
  <circle cx="72" cy="27" r="5" fill="#ec4899" />
  <circle cx="78" cy="27" r="5" fill="#ec4899" />
  <circle cx="75" cy="24" r="5" fill="#ec4899" />
  <circle cx="75" cy="27" r="3" fill="#fcd34d" />
</svg>